.
 
http://www.scenetime.com    -   SceneTime [ We been having it ] !!!


How come you press harder on a remote control when you know the battery is dead? so you better seed to get speed ;)

        Seed back for speed


...................................NFO:.................................................[pre][img]http://i824.photobucket.com/albums/zz161/akosipalos/SCposter.png[/img]   
            
*******************************************************************************
                  Source.Code.2011.480p.BRRip.XviD.AC3-PRESTiGE
*******************************************************************************

-------------------------------------------------------------------------------
                              General Information
-------------------------------------------------------------------------------

TiTLE............: Source.Code.2011.480p.BRRip.XviD.AC3-PRESTiGE

iMDB.............: http://www.imdb.com/title/tt0945513/

GENRE............: Mystery | Sci-Fi | Thriller

LANGUAGE.........: English

FORMAT...........: AVi

SOURCE...........: 720p.DTS.x264-CHD MANY THANKS!!!

FiLE SiZE........: 1.90 GB

SAMPLE iNCLUDED..: YES

SUBS.............: N/A

DURATiON.........: 1h 33mn

ENCODED by.......: [color=maroon]akosipalos[/color]



ViDEO iNFO:

ID                               : 0
Format                           : MPEG-4 Visual
Format profile                   : Advanced Simple@L5
Format settings, BVOP            : 2
Format settings, QPel            : No
Format settings, GMC             : No warppoints
Format settings, Matrix          : Default (H.263)
Codec ID                         : XVID
Codec ID/Hint                    : XviD
Duration                         : 1h 33mn
Bit rate                         : 2 458 Kbps
Width                            : 720 pixels
Height                           : 400 pixels
Display aspect ratio             : 16:9
Frame rate                       : 23.976 fps
Color space                      : YUV
Chroma subsampling               : 4:2:0
Bit depth                        : 8 bits
Scan type                        : Progressive
Compression mode                 : Lossy
Bits/(Pixel*Frame)               : 0.356
Stream size                      : 1.60 GiB (84%)
Writing library                  : XviD 1.2.1 (UTC 2008-12-04)


AUDiO iNFO:

ID                               : 1
Format                           : AC-3
Format/Info                      : Audio Coding 3
Mode extension                   : CM (complete main)
Codec ID                         : 2000
Duration                         : 1h 33mn
Bit rate mode                    : Constant
Bit rate                         : 448 Kbps
Channel(s)                       : 6 channels
Channel positions                : Front: L C R, Side: L R, LFE
Sampling rate                    : 48.0 KHz
Bit depth                        : 16 bits
Compression mode                 : Lossy
Stream size                      : 299 MiB (15%)
Alignment                        : Aligned on interleaves
Interleave, duration             : 64 ms (1.53 video frames)
Interleave, preload duration     : 192 ms
Title                            : T2_Audio - 5.1 channels


-------------------------------------------------------------------------------
                                 PLOT:
-------------------------------------------------------------------------------


An action thriller centered on a soldier who wakes up in the body of an unknown man and discovers he's part of a mission to find the bomber of a Chicago commuter train. 


-------------------------------------------------------------------------------
                                 CAST:
-------------------------------------------------------------------------------


. Jake Gyllenhaal as Colter Stevens

. Michelle Monaghan as Christina Warren

. Vera Farmiga as Colleen Goodwin

. Jeffrey Wright as Dr. Rutledge

. Michael Arden as Derek Frost

. Cas Anvar as Hazmi

. Russell Peters as Max Denoff

. Brent Skagford as George Troxel

. Craig Thomas as Gold Watch Executive

. Gordon Masten as Conductor 


-------------------------------------------------------------------------------
                               SCREENS:
-------------------------------------------------------------------------------


[img]http://i824.photobucket.com/albums/zz161/akosipalos/sc1-3.png[/img]

[img]http://i824.photobucket.com/albums/zz161/akosipalos/sc2-3.png[/img]

[img]http://i824.photobucket.com/albums/zz161/akosipalos/sc3-3.png[/img]

[img]http://i824.photobucket.com/albums/zz161/akosipalos/sc4-2.png[/img]

[img]http://i824.photobucket.com/albums/zz161/akosipalos/sc5-1.png[/img]



-------------------------------------------------------------------------------
                             Release Notes
-------------------------------------------------------------------------------

WE DONT RELEASE EVERYTHING TO OTHERS SITES YOU WANT MORE OF OUR STUFF COME FIND US AT .......

WE ARE LOOKING FOR SUPPLIERS BLURAY CAM R5 PRE RETAIL DVD GOT SOMETHING WE MIGHT LIKE WHEN YOU FIND US TELL US.......



ENCODER'S - ANYTHING AT ALL EMAIL US AT..... prestige@hushmail.me

** ** ** ** ** ** ** ** **

PRESTiGE is the level of respect at which one is regarded by others....RIzE Above Or Sink Below...


-------------------------------------------------------------------------------
                                 GREETZ:
-------------------------------------------------------------------------------


Twisted ,bigguy, Selina, 6of1, CTFX, HiTM4N, bedsy, mtyy, whitestag13, paranoid53, PA4U2C, phules, tac, BMB, Flawl3ss, smelise, fifer, akosipalos, DiLLoN, IMAGINE,"the squad" , floridajoe and To All Encoders Past And Present......


-------------------------------------------------------------------------------
Generated with Cool NFO Creator - http://fly.to/coolbeans
-------------------------------------------------------------------------------
[/pre]